<svg xmlns="http://www.w3.org/2000/svg" viewBox="0 0 283.42 321.48"><defs><style>.cls-1{fill:#ddb7bd;}.cls-2,.cls-3{fill:#fff;}.cls-3{font-size:30px;font-family:FrenchScriptMT, French Script MT;}</style></defs><title>Asset 8</title><g id="Layer_2" data-name="Layer 2"><g id="Layer_1-2" data-name="Layer 1"><path class="cls-1" d="M34.33,60.19A66.91,66.91,0,0,1,38,31.47c5.88-16,19.59-34,51.59-31.17,56,5,39,10,92,9s70.81,47.09,72,55c2.27,15.12,22.3,69,24.68,75.13l.53,1.38c1.74,4.43,13.15,37.06-8.21,83.49-18.31,39.8-63.86,73.27-81.68,85.26a66.87,66.87,0,0,1-23.06,9.95c-16.19,3.56-42.62,4.43-68.26-16.21-41-33-22-26-60-55s-50-64-23-108C35.56,106.17,35.44,73.24,34.33,60.19Z"/><path class="cls-2" d="M167.42,177.94c0,38.79-20.3,50.74-38.11,50.74-24.36,0-39-17.14-39-32.47,0-5.18,1.81-9.47,7.67-9.47,5.64,0,8.34,3.16,8.34,8.57l-1.57,7.89c0,3.84,2.48,18.49,27.06,18.49,6.09,0,11.5-3.38,16.46-9.69,5-6.77,7.66-18.27,7.66-34.06V79.63c0-7.22-5.63-10.15-12.62-10.15H130.66v-7h62.46v7h-12.4c-7.67,0-13.3,1.8-13.3,10.15Z"/><text class="cls-3" transform="translate(77.18 209.34) rotate(80.7)"> </text><text class="cls-3" transform="translate(79.05 218.81) rotate(66.09)"> </text><text class="cls-3" transform="matrix(0.59, 0.81, -0.81, 0.59, 83.02, 227.25)"> </text><text class="cls-3" transform="translate(88.54 234.54) rotate(43.11)"> </text><text class="cls-3" transform="matrix(0.84, 0.55, -0.55, 0.84, 95.22, 240.6)"> </text><text class="cls-3" transform="translate(102.61 245.24) rotate(24.81)">j</text><text class="cls-3" transform="translate(109.25 248.37) rotate(15.54)">u</text><text class="cls-3" transform="matrix(1, 0.09, -0.09, 1, 120.72, 251.37)">n</text><text class="cls-3" transform="matrix(1, -0.06, 0.06, 1, 132.01, 252.28)">e</text><text class="cls-3" transform="translate(141.26 251.58) rotate(-13.47)"> </text><text class="cls-3" transform="matrix(0.89, -0.46, 0.46, 0.89, 150.61, 249.33)">k</text><text class="cls-3" transform="matrix(0.72, -0.69, 0.69, 0.72, 162.64, 242.63)">a</text><text class="cls-3" transform="matrix(0.53, -0.85, 0.85, 0.53, 171.34, 233.8)">n</text><text class="cls-3" transform="matrix(0.37, -0.93, 0.93, 0.37, 177.39, 223.93)">g</text><text class="cls-3" transform="translate(181.52 213.03) rotate(-75.44)"> </text><path class="cls-2" d="M181.73,207.78a27.19,27.19,0,0,0,.89-4.85,6.1,6.1,0,0,0-.26-2.35,6.6,6.6,0,0,0-1.49-1.86,6.88,6.88,0,0,1-1.41-2.09,9.83,9.83,0,0,1-.58-2.45,5,5,0,0,0-2.29-4h0a.26.26,0,0,1,.2-.48,13.23,13.23,0,0,1,2.92,1.31,10.78,10.78,0,0,1,2.46,2.06,6.65,6.65,0,0,1,1.38,6s0,0,0,0a0,0,0,0,1,0,0h0a8.93,8.93,0,0,0,0-1.55l-.07-.76-.2-.74a7,7,0,0,0-1.49-2.61,10.3,10.3,0,0,0-2.35-1.91,13.89,13.89,0,0,0-2.75-1.32l.18-.48a5.16,5.16,0,0,1,2.3,4.41,7,7,0,0,0,.52,2.4,5.42,5.42,0,0,0,1.47,1.92,5.82,5.82,0,0,1,1.7,1.91,5.56,5.56,0,0,1,.28,2.57,16.43,16.43,0,0,1-1.29,4.84l0,0Z"/><path class="cls-2" d="M184.64,195.82a3,3,0,0,1,.91-1.37c.41-.37.85-.69,1.26-1a6.07,6.07,0,0,0,1.87-2.44c.45-.93.62-2,1.15-3a5,5,0,0,1,2.33-2.29l.07.32a13.29,13.29,0,0,0-5.5,2.58,7.23,7.23,0,0,0-1.82,2.36,7.9,7.9,0,0,0-.71,3,0,0,0,0,1,0,0,0,0,0,0,1,0,0,6.94,6.94,0,0,1,.36-3.15,6.77,6.77,0,0,1,1.86-2.63,9.49,9.49,0,0,1,2.74-1.65,11.39,11.39,0,0,1,3.08-.81.16.16,0,0,1,.18.14.17.17,0,0,1-.11.18,3.92,3.92,0,0,0-2.25,2.06,25.5,25.5,0,0,0-.9,3.1,5.62,5.62,0,0,1-.8,1.46,6.62,6.62,0,0,1-1.22,1.15c-.89.63-1.89,1.07-2.38,2.06,0,0,0,0,0,0S184.64,195.83,184.64,195.82Z"/><path class="cls-2" d="M185.68,187.52a3.06,3.06,0,0,1,.83-1.42c.4-.39.82-.73,1.22-1.08a6,6,0,0,0,1.73-2.53c.4-1,.52-2.07,1-3.06a4.88,4.88,0,0,1,2.21-2.41l.08.31a13.34,13.34,0,0,0-5.35,2.86,7.37,7.37,0,0,0-1.71,2.46,7.92,7.92,0,0,0-.55,3,0,0,0,0,1,0,0s0,0,0,0a6.47,6.47,0,0,1,1.92-5.89,9.57,9.57,0,0,1,2.66-1.79,11.78,11.78,0,0,1,3-1,.18.18,0,0,1,.19.14.17.17,0,0,1-.11.18,4,4,0,0,0-2.14,2.17,26.71,26.71,0,0,0-.73,3.14,5.73,5.73,0,0,1-.74,1.51,6,6,0,0,1-1.15,1.2c-.86.68-1.83,1.18-2.28,2.18,0,0,0,0,0,0S185.68,187.53,185.68,187.52Z"/><path class="cls-2" d="M182.16,191.76a6.45,6.45,0,0,0-1.63-2.69,6.32,6.32,0,0,1-.81-1.46,5.88,5.88,0,0,1-.32-1.65,27.09,27.09,0,0,0,.1-3.22,4,4,0,0,0-1.51-2.66.15.15,0,0,1,0-.22.16.16,0,0,1,.2-.06,11.24,11.24,0,0,1,2.68,1.72,9.37,9.37,0,0,1,2.11,2.41,6.77,6.77,0,0,1,.95,3.08,6.87,6.87,0,0,1-.61,3.11s0,0,0,0,0,0,0,0a7.93,7.93,0,0,0,.24-3,7.35,7.35,0,0,0-1-2.82,13.45,13.45,0,0,0-4.44-4.14l.16-.28a4.94,4.94,0,0,1,1.51,2.9c.21,1.08,0,2.19.18,3.22a6.13,6.13,0,0,0,1,2.89c.3.44.61.88.9,1.35a3.1,3.1,0,0,1,.44,1.59s0,0,0,0S182.16,191.77,182.16,191.76Z"/><path class="cls-2" d="M182.86,182.85a6.42,6.42,0,0,0-.54-3.11,5.37,5.37,0,0,1,.08-3.3,25,25,0,0,0,1.27-3,4,4,0,0,0-.43-3,.16.16,0,0,1,0-.22.15.15,0,0,1,.21,0,11.56,11.56,0,0,1,1.87,2.58,9.65,9.65,0,0,1,1.08,3,6.85,6.85,0,0,1-.23,3.21,6.76,6.76,0,0,1-1.72,2.66s0,0,0,0,0,0,0,0a8.13,8.13,0,0,0,1.34-2.76,7.34,7.34,0,0,0,.08-3,13.28,13.28,0,0,0-2.62-5.47l.26-.2a5,5,0,0,1,.35,3.24c-.21,1.09-.77,2.06-1,3.07a6.1,6.1,0,0,0-.1,3.06c.12.52.25,1,.34,1.59a3,3,0,0,1-.17,1.63s0,0,0,0S182.85,182.86,182.86,182.85Z"/></g></g></svg>